<?xml version="1.0" standalone="no"?>
<!DOCTYPE svg PUBLIC "-//W3C//DTD SVG 20010904//EN"
 "http://www.w3.org/TR/2001/REC-SVG-20010904/DTD/svg10.dtd">
<svg version="1.0" xmlns="http://www.w3.org/2000/svg"
 width="2000.000000pt" height="2000.000000pt" viewBox="0 0 2000.000000 2000.000000"
 preserveAspectRatio="xMidYMid meet">

<g transform="translate(0.000000,2000.000000) scale(0.100000,-0.100000)"
fill="#000000" stroke="none">
<path d="M11389 15978 c-10 -19 -6 -184 7 -301 11 -88 -112 -80 1227 -74 1131
5 1307 3 1307 -12 0 -12 -60 -70 -228 -221 -89 -80 -494 -480 -901 -890 -407
-410 -948 -952 -1203 -1205 -801 -796 -1340 -1336 -1458 -1460 -63 -67 -121
-125 -129 -129 -10 -6 -246 225 -869 850 -470 473 -907 915 -970 984 -143 156
-149 160 -192 133 -55 -35 -2471 -2455 -2486 -2491 -14 -30 -13 -37 7 -77 30
-60 70 -96 162 -145 75 -40 78 -41 102 -26 67 44 233 206 1150 1126 1147 1150
1085 1089 1099 1083 6 -2 38 -39 71 -81 33 -42 407 -423 830 -846 424 -424
834 -837 912 -918 78 -82 149 -148 158 -148 20 0 3934 3916 4060 4063 88 103
128 137 142 123 15 -15 23 -633 21 -1548 -2 -713 0 -960 9 -969 8 -8 59 -9
194 -3 l183 9 -5 480 c-6 709 -4 1791 4 2276 l7 426 -200 7 c-111 4 -831 6
-1601 5 -1386 -1 -1400 -2 -1410 -21z"/>
<path d="M13010 7830 c0 -4120 -5 -3811 57 -3824 16 -4 156 -2 313 4 157 5
539 10 850 10 311 0 570 4 577 8 6 4 112 4 235 1 122 -4 430 -8 683 -10 l460
-4 3 3695 c1 2032 3 3736 5 3785 l2 90 -1592 3 -1593 2 0 -3760z m2787 3377
c11 -11 11 -6813 0 -6824 -5 -4 -95 -8 -200 -7 -106 1 -643 3 -1194 5 -551 2
-1005 7 -1009 11 -4 4 -7 1539 -6 3410 l0 3403 359 5 c580 8 2041 6 2050 -3z"/>
<path d="M8410 9178 c-4 -141 2 -5142 6 -5153 3 -8 22 -17 42 -21 20 -4 292
-1 606 7 353 8 858 12 1321 9 413 -2 851 -4 974 -4 l224 -1 2 2565 c1 1411 3
2574 6 2585 4 20 -2 20 -1588 23 -1271 2 -1593 0 -1593 -10z m2800 -2495 c0
-1171 -3 -2165 -7 -2210 l-6 -83 -1203 0 c-662 0 -1205 4 -1208 8 -3 5 -2 999
1 2210 l6 2202 1209 0 1208 0 0 -2127z"/>
<path d="M3938 6793 l-138 -4 0 -117 c0 -64 5 -436 11 -827 7 -497 7 -868 0
-1236 -7 -342 -7 -539 0 -562 8 -29 15 -36 42 -40 35 -6 905 15 1002 24 50 5
1993 -12 2018 -17 16 -3 48 -3 72 1 l44 6 -2 1385 -2 1384 -1336 0 c-735 0
-1389 2 -1455 4 -65 1 -181 1 -256 -1z m2673 -678 c9 -455 10 -1698 1 -1713
-7 -10 -257 -12 -1218 -10 l-1209 3 -2 495 c-2 272 1 725 5 1005 l7 510 215 5
c118 3 661 5 1205 5 l990 0 6 -300z"/>
</g>
</svg>
